
<svg width="116" height="116" viewBox="0 0 116 116" fill="none" xmlns="http://www.w3.org/2000/svg">
<g filter="url(#filter0_d_240_26)">
<rect x="10" y="6" width="96" height="96" rx="12" fill="url(#paint0_linear_240_26)"/>
<path d="M94 34.5369V18H77.4401H61.9301V34.5369H77.4401V50.1134H94V34.5369Z" fill="#00E3B3"/>
<path d="M93.7597 57.9466H77.4998H77.4398V58.2467C75.4898 67.2204 67.5398 73.9432 57.9999 73.9432C47.0199 73.9432 38.0799 65.0295 38.0799 54.0149C38.0799 44.3509 44.9499 36.3076 54.0699 34.4768V18.2401C36.0399 20.1909 22 35.4672 22 54.0149C22 73.8832 38.1099 89.9999 57.9699 89.9999C65.1398 89.9999 71.7998 87.899 77.4098 84.2975V89.9999H93.9397V57.9466H93.7597Z" fill="white"/>
</g>
<defs>
<filter id="filter0_d_240_26" x="0" y="0" width="116" height="116" filterUnits="userSpaceOnUse" color-interpolation-filters="sRGB">
<feFlood flood-opacity="0" result="BackgroundImageFix"/>
<feColorMatrix in="SourceAlpha" type="matrix" values="0 0 0 0 0 0 0 0 0 0 0 0 0 0 0 0 0 0 127 0" result="hardAlpha"/>
<feOffset dy="4"/>
<feGaussianBlur stdDeviation="5"/>
<feComposite in2="hardAlpha" operator="out"/>
<feColorMatrix type="matrix" values="0 0 0 0 0 0 0 0 0 0 0 0 0 0 0 0 0 0 0.1 0"/>
<feBlend mode="normal" in2="BackgroundImageFix" result="effect1_dropShadow_240_26"/>
<feBlend mode="normal" in="SourceGraphic" in2="effect1_dropShadow_240_26" result="shape"/>
</filter>
<linearGradient id="paint0_linear_240_26" x1="58" y1="6" x2="58" y2="102" gradientUnits="userSpaceOnUse">
<stop offset="0.0245934" stop-color="#002B58"/>
<stop offset="0.484375" stop-color="#5329EE"/>
<stop offset="1" stop-color="#00E3B3"/>
</linearGradient>
</defs>
</svg>
